<svg width="200" height="200" viewBox="0 0 200 200" fill="none" xmlns="http://www.w3.org/2000/svg">
  <circle cx="100" cy="100" r="90" fill="#10b981" opacity="0.1" />
  <path d="M100 30C61.34 30 30 61.34 30 100C30 138.66 61.34 170 100 170C138.66 170 170 138.66 170 100C170 61.34 138.66 30 100 30ZM100 150C72.39 150 50 127.61 50 100C50 72.39 72.39 50 100 50C127.61 50 150 72.39 150 100C150 127.61 127.61 150 100 150Z" fill="#10b981" />
  <path d="M100 70C83.43 70 70 83.43 70 100C70 116.57 83.43 130 100 130C116.57 130 130 116.57 130 100C130 83.43 116.57 70 100 70ZM100 110C94.48 110 90 105.52 90 100C90 94.48 94.48 90 100 90C105.52 90 110 94.48 110 100C110 105.52 105.52 110 100 110Z" fill="#10b981" />
  <path d="M100 60C77.91 60 60 77.91 60 100C60 122.09 77.91 140 100 140C122.09 140 140 122.09 140 100C140 77.91 122.09 60 100 60ZM100 120C88.95 120 80 111.05 80 100C80 88.95 88.95 80 100 80C111.05 80 120 88.95 120 100C120 111.05 111.05 120 100 120Z" fill="#10b981" />
</svg>
